<svg xmlns="http://www.w3.org/2000/svg" xmlns:xlink="http://www.w3.org/1999/xlink" viewBox="0 0 73.71 68.57"><defs><style>.cls-1{fill:#fff;}.cls-2{fill:url(#linear-gradient);}.cls-3{fill:url(#linear-gradient-2);}.cls-4{fill:url(#linear-gradient-3);}</style><linearGradient id="linear-gradient" x1="20.95" y1="32.48" x2="66.11" y2="32.48" gradientUnits="userSpaceOnUse"><stop offset="0" stop-color="#fff"/><stop offset="0.1" stop-color="#fbfafb"/><stop offset="0.23" stop-color="#eeeaef"/><stop offset="0.37" stop-color="#d9d1db"/><stop offset="0.52" stop-color="#bbaebf"/><stop offset="0.68" stop-color="#95819b"/><stop offset="0.84" stop-color="#674a6f"/><stop offset="1" stop-color="#320b3d"/></linearGradient><linearGradient id="linear-gradient-2" x1="10.41" y1="34.75" x2="51.3" y2="34.75" gradientUnits="userSpaceOnUse"><stop offset="0" stop-color="#fff"/><stop offset="0.1" stop-color="#d8d1da"/><stop offset="0.23" stop-color="#ad9db1"/><stop offset="0.36" stop-color="#87708d"/><stop offset="0.49" stop-color="#684c70"/><stop offset="0.62" stop-color="#512f5a"/><stop offset="0.74" stop-color="#401b4a"/><stop offset="0.87" stop-color="#350f40"/><stop offset="1" stop-color="#320b3d"/></linearGradient><linearGradient id="linear-gradient-3" x1="15.51" y1="32.67" x2="51.19" y2="32.67" xlink:href="#linear-gradient"/></defs><title>Asset 1</title><g id="Layer_2" data-name="Layer 2"><g id="Layer_1-2" data-name="Layer 1"><rect class="cls-1" width="73.71" height="68.57" rx="5.14"/><path class="cls-2" d="M21,14.53c.11-3.41,15.91-9.56,23.67-1.31.23.25,4.81,5.25,4,11.07-.72,5.17-5,5.78-7.36,11-2.87,6.34-3.32,16.6,2.66,21.38,7.35,5.86,20.53.47,20.58-2.07,0-1.87-7.06-1.12-11.77-6.68-4.19-4.94-5.34-13.5-1.95-19.09,4.5-7.44,15.66-7.31,15.33-9.6-.22-1.52-5.38-3.33-9.17-1.93-.87.33-1.24.66-1.77.5C52.44,17,53.47,5.65,53.38,5.65S54.61,17,49.64,19.84a6.83,6.83,0,0,1-2.64.65C34.29,22.91,20.84,17.71,21,14.53Z"/><path class="cls-3" d="M16.34,9.82c-6.46,4.73-6.19,12.07-5.7,25.4S11.36,55,17.15,59.3c9.52,7,28.59,5.36,33-1.25,1.55-2.34,1.72-6-.39-7.65-3.39-2.71-9.74,2-18.73,0-6.08-1.34-11.26-5.24-10.59-6.93,1.26-3.21,22.74,3.46,28.83-3.62,2.51-2.91,2.1-7.78-.32-9.25-1.46-.88-3-.16-9.68.82-6.26.91-9.44,1.35-11.5.5-3.75-1.55-6.65-6.55-4.89-9.56,3.27-5.59,20.33-.51,24.84-7.12a6.07,6.07,0,0,0-.39-7.32c-.88-1-2.82-2.3-9.9-2.27C29.78,5.68,22,5.71,16.34,9.82Z"/><path class="cls-4" d="M39.05,36.6c-1.2,1.11,2.17,6.23,1.42,6.77S36.6,38.56,33.85,39c-4.65.68-4.12,17.16-6.75,17.39-2,.17-8.36-12.31-3.43-20.57,3.73-6.26,11.49-5.94,11.81-9.54.52-5.95-20.47-10.1-20-13.52.61-4,31-6.9,35,3,1.35,3.33.59,10.2-2.87,12.32-1.11.68,3.5,2.16-1.11.68-3.08-1,.42,8.21-.85,9.37S40.21,35.53,39.05,36.6Z"/></g></g></svg>